<svg width="68" height="68" viewBox="0 0 68 68" fill="none" xmlns="http://www.w3.org/2000/svg">
<path d="M20.6667 54.0003L34 43.8337L47.3334 54.0003L42.3334 37.5003L55.6667 28.0003H39.3334L34 10.667L28.6667 28.0003H12.3334L25.6667 37.5003L20.6667 54.0003ZM34 67.3337C29.3889 67.3337 25.0556 66.4587 21 64.7087C16.9445 62.9587 13.4167 60.5837 10.4167 57.5837C7.41669 54.5837 5.04169 51.0559 3.29169 47.0003C1.54169 42.9448 0.666687 38.6114 0.666687 34.0003C0.666687 29.3892 1.54169 25.0559 3.29169 21.0003C5.04169 16.9448 7.41669 13.417 10.4167 10.417C13.4167 7.41699 16.9445 5.04199 21 3.29199C25.0556 1.54199 29.3889 0.666992 34 0.666992C38.6111 0.666992 42.9445 1.54199 47 3.29199C51.0556 5.04199 54.5834 7.41699 57.5834 10.417C60.5834 13.417 62.9584 16.9448 64.7084 21.0003C66.4584 25.0559 67.3334 29.3892 67.3334 34.0003C67.3334 38.6114 66.4584 42.9448 64.7084 47.0003C62.9584 51.0559 60.5834 54.5837 57.5834 57.5837C54.5834 60.5837 51.0556 62.9587 47 64.7087C42.9445 66.4587 38.6111 67.3337 34 67.3337Z" fill="white"/>
</svg>
