<svg width="68" height="68" viewBox="0 0 68 68" fill="none" xmlns="http://www.w3.org/2000/svg">
<path d="M20.6667 54.0003L34 43.8337L47.3333 54.0003L42.3333 37.5003L55.6667 28.0003H39.3333L34 10.667L28.6667 28.0003H12.3333L25.6667 37.5003L20.6667 54.0003ZM34 67.3337C29.3889 67.3337 25.0555 66.4587 21 64.7087C16.9444 62.9587 13.4167 60.5837 10.4167 57.5837C7.41666 54.5837 5.04166 51.0559 3.29166 47.0003C1.54166 42.9448 0.666656 38.6114 0.666656 34.0003C0.666656 29.3892 1.54166 25.0559 3.29166 21.0003C5.04166 16.9448 7.41666 13.417 10.4167 10.417C13.4167 7.41699 16.9444 5.04199 21 3.29199C25.0555 1.54199 29.3889 0.666992 34 0.666992C38.6111 0.666992 42.9444 1.54199 47 3.29199C51.0555 5.04199 54.5833 7.41699 57.5833 10.417C60.5833 13.417 62.9583 16.9448 64.7083 21.0003C66.4583 25.0559 67.3333 29.3892 67.3333 34.0003C67.3333 38.6114 66.4583 42.9448 64.7083 47.0003C62.9583 51.0559 60.5833 54.5837 57.5833 57.5837C54.5833 60.5837 51.0555 62.9587 47 64.7087C42.9444 66.4587 38.6111 67.3337 34 67.3337Z" fill="#FFB998"/>
</svg>
